<?xml version="1.0" encoding="UTF-8"?>
<svg width="18px" height="16px" viewBox="0 0 18 16" version="1.1" xmlns="http://www.w3.org/2000/svg" xmlns:xlink="http://www.w3.org/1999/xlink">
    <!-- Generator: Sketch 50.2 (55047) - http://www.bohemiancoding.com/sketch -->
    <title>icon_select</title>
    <desc>Created with Sketch.</desc>
    <defs></defs>
    <g id="Page-1" stroke="none" stroke-width="1" fill="none" fill-rule="evenodd">
        <g id="3.1_文档页_路径导航窗" transform="translate(-720.000000, -580.000000)">
            <g id="icon_select" transform="translate(720.000000, 580.000000)">
                <path d="M0,15.4464873 L17.1577895,0.204578321 L17.1577895,14.4464873 C17.1577895,14.998772 16.7100742,15.4464873 16.1577895,15.4464873 L0,15.4464873 Z" id="Path-4" fill="#91C31E"></path>
                <g id="对-(1)" transform="translate(7.000000, 6.000000)" fill="#FFFFFF" fill-rule="nonzero">
                    <path d="M8.64626556,0.255565291 L3.41804979,6.04837855 L1.35373444,3.7629786 C1.04253112,3.42222487 0.544605809,3.42222487 0.23340249,3.7629786 C-0.0778008299,4.10373232 -0.0778008299,4.66186341 0.23340249,5.00261713 L2.70746888,7.7462721 C2.87344398,7.92839909 3.17427386,8.01064998 3.42323651,7.99889986 C3.67219917,8.01064998 3.96784232,7.92839909 4.12863071,7.7462721 L9.76659751,1.49520383 C10.0778008,1.15445011 10.0778008,0.596319012 9.76659751,0.255565291 C9.45539419,-0.0851884303 8.95746888,-0.0851884303 8.64626556,0.255565291 Z" id="Shape"></path>
                </g>
            </g>
        </g>
    </g>
</svg>